<svg width="206" height="231" viewBox="0 0 206 231" fill="none" xmlns="http://www.w3.org/2000/svg">
<path d="M143.143 84C143.143 96.1503 133.293 106 121.143 106C108.992 106 99.1426 96.1503 99.1426 84C99.1426 71.8497 108.992 62 121.143 62C133.293 62 143.143 71.8497 143.143 84Z" fill="#FFC131"/>
<ellipse cx="84.1426" cy="147" rx="22" ry="22" transform="rotate(180 84.1426 147)" fill="#24C8DB"/>
<path fill-rule="evenodd" clip-rule="evenodd" d="M166.738 154.548C157.86 149.263 148.023 145.465 137.757 143.407C144.279 130.069 143.249 114.175 134.383 101.906C125.175 89.1508 110.135 81.81 95.1426 84.0846C80.1502 86.3593 67.9855 96.8262 63.1436 110.83C58.3017 96.8262 46.137 86.3593 31.1446 84.0846C16.1522 81.81 1.11229 89.1508 -8.09589 101.906C-16.9619 114.175 -17.9918 130.069 -11.4695 143.407C-21.7353 145.465 -31.5722 149.263 -40.4502 154.548C-52.8618 162.226 -59.2979 174.573 -55.7306 186.77C-52.1632 198.967 -39.6055 207.018 -25.1426 207.018H195.143C209.606 207.018 222.163 198.967 225.731 186.77C229.298 174.573 222.862 162.226 210.45 154.548C201.572 149.263 191.735 145.465 181.469 143.407C187.991 130.069 186.961 114.175 178.095 101.906C168.887 89.1508 153.847 81.81 138.855 84.0846C123.862 86.3593 111.698 96.8262 106.856 110.83C102.014 96.8262 89.8493 86.3593 74.8569 84.0846C59.8645 81.81 44.8246 89.1508 35.6164 101.906C26.7504 114.175 25.7205 130.069 32.2428 143.407C21.9769 145.465 12.1401 149.263 3.26207 154.548C-9.14956 162.226 -15.5856 174.573 -12.0183 186.77C-8.45094 198.967 4.10679 207.018 18.5697 207.018H188.569C203.032 207.018 215.589 198.967 219.157 186.77C222.724 174.573 216.288 162.226 203.876 154.548C195.998 149.263 187.161 145.465 177.895 143.407C184.417 130.069 183.387 114.175 174.521 101.906C165.313 89.1508 150.273 81.81 135.281 84.0846C120.288 86.3593 108.124 96.8262 103.282 110.83C98.4398 96.8262 86.2751 86.3593 71.2827 84.0846C56.2903 81.81 41.2504 89.1508 32.0422 101.906C23.1762 114.175 22.1463 130.069 28.6686 143.407C18.4027 145.465 8.56592 149.263 -0.311889 154.548C-12.7235 162.226 -19.1596 174.573 -15.5922 186.77C-12.0249 198.967 0.532763 207.018 14.9957 207.018H184.996C199.459 207.018 212.016 198.967 215.584 186.77C219.151 174.573 212.715 162.226 200.303 154.548C191.425 149.263 181.588 145.465 171.322 143.407C177.844 130.069 176.814 114.175 167.948 101.906C158.74 89.1508 143.7 81.81 128.708 84.0846C113.715 86.3593 101.551 96.8262 96.7089 110.83C91.8669 96.8262 79.7022 86.3593 64.7098 84.0846C49.7174 81.81 34.6775 89.1508 25.4693 101.906C16.6033 114.175 15.5734 130.069 22.0957 143.407C11.8298 145.465 1.99305 149.263 -6.88497 154.548C-19.2966 162.226 -25.7327 174.573 -22.1653 186.77C-18.598 198.967 -6.04022 207.018 8.42266 207.018H178.423C192.886 207.018 205.443 198.967 209.011 186.77C212.578 174.573 206.142 162.226 193.73 154.548C184.852 149.263 175.015 145.465 164.749 143.407C171.271 130.069 170.241 114.175 161.375 101.906C152.167 89.1508 137.127 81.81 122.135 84.0846C107.142 86.3593 94.9778 96.8262 90.1359 110.83C85.2939 96.8262 73.1292 86.3593 58.1368 84.0846C43.1444 81.81 28.1045 89.1508 18.8963 101.906C10.0303 114.175 9.00042 130.069 15.5227 143.407C5.25681 145.465 -4.57999 149.263 -13.458 154.548C-25.8696 162.226 -32.3057 174.573 -28.7383 186.77C-25.171 198.967 -12.6132 207.018 1.84973 207.018H171.85C186.313 207.018 198.87 198.967 202.438 186.77C206.005 174.573 199.569 162.226 187.157 154.548C178.279 149.263 168.442 145.465 158.176 143.407C164.698 130.069 163.668 114.175 154.802 101.906C145.594 89.1508 130.554 81.81 115.562 84.0846C100.569 86.3593 88.4047 96.8262 83.5627 110.83C78.7208 96.8262 66.5561 86.3593 51.5637 84.0846C36.5713 81.81 21.5314 89.1508 12.3232 101.906C3.45721 114.175 2.42732 130.069 8.94958 143.407C-1.31632 145.465 -11.1531 149.263 -20.0311 154.548C-32.4427 162.226 -38.8788 174.573 -35.3114 186.77C-31.7441 198.967 -19.1863 207.018 -4.72338 207.018H165.277C179.74 207.018 192.297 198.967 195.864 186.77C199.432 174.573 192.996 162.226 180.584 154.548C171.706 149.263 161.869 145.465 151.603 143.407C158.125 130.069 157.095 114.175 148.229 101.906C139.021 89.1508 123.981 81.81 108.989 84.0846C93.9963 86.3593 81.8316 96.8262 76.9896 110.83C72.1477 96.8262 59.983 86.3593 44.9906 84.0846C29.9982 81.81 14.9583 89.1508 5.75012 101.906C-3.11588 114.175 -4.14577 130.069 2.37649 143.407C-7.88938 145.465 -17.7262 149.263 -26.6042 154.548C-39.0158 162.226 -45.4519 174.573 -41.8845 186.77C-38.3172 198.967 -25.7594 207.018 -11.2965 207.018H158.704C173.167 207.018 185.724 198.967 189.291 186.77C192.859 174.573 186.423 162.226 174.011 154.548C165.133 149.263 155.296 145.465 145.03 143.407C151.552 130.069 150.522 114.175 141.656 101.906C132.448 89.1508 117.408 81.81 102.416 84.0846C87.4233 86.3593 75.2586 96.8262 70.4167 110.83C65.5747 96.8262 53.41 86.3593 38.4176 84.0846C23.4252 81.81 8.38532 89.1508 -0.822547 101.906C-9.68854 114.175 -10.7184 130.069 -4.19618 143.407C-14.4621 145.465 -24.2989 149.263 -33.1769 154.548C-45.5885 162.226 -52.0246 174.573 -48.4572 186.77C-44.8899 198.967 -32.3321 207.018 -17.8692 207.018H152.131C166.594 207.018 179.151 198.967 182.718 186.77C186.286 174.573 179.85 162.226 167.438 154.548C158.56 149.263 148.723 145.465 138.457 143.407C144.979 130.069 143.949 114.175 135.083 101.906C125.875 89.1508 110.835 81.81 95.8428 84.0846C80.8504 86.3593 68.6857 96.8262 63.8438 110.83C59.0018 96.8262 46.8371 86.3593 31.8447 84.0846C16.8523 81.81 1.8124 89.1508 -7.39542 101.906C-16.2614 114.175 -17.2913 130.069 -10.769 143.407C-21.035 145.465 -30.8718 149.263 -39.7498 154.548C-52.1614 162.226 -58.5975 174.573 -55.0301 186.77C-51.4628 198.967 -38.905 207.018 -24.4421 207.018H145.558C160.021 207.018 172.578 198.967 176.145 186.77C179.713 174.573 173.277 162.226 160.865 154.548C151.987 149.263 142.15 145.465 131.884 143.407C138.406 130.069 137.376 114.175 128.51 101.906C119.302 89.1508 104.262 81.81 89.2696 84.0846C74.2772 86.3593 62.1125 96.8262 57.2706 110.83C52.4286 96.8262 40.2639 86.3593 25.2715 84.0846C10.2791 81.81 -4.76078 89.1508 -13.969 101.906C-22.835 114.175 -23.8649 130.069 -17.3426 143.407C-27.6085 145.465 -37.4453 149.263 -46.3233 154.548C-58.7349 162.226 -65.171 174.573 -61.6036 186.77C-58.0363 198.967 -45.4785 207.018 -30.0156 207.018H139.985C154.448 207.018 167.005 198.967 170.572 186.77C174.14 174.573 167.704 162.226 155.292 154.548C146.414 149.263 136.577 145.465 126.311 143.407C132.833 130.069 131.803 114.175 122.937 101.906C113.729 89.1508 98.6893 81.81 83.6969 84.0846C68.7045 86.3593 56.5398 96.8262 51.6979 110.83C46.8559 96.8262 34.6912 86.3593 19.6988 84.0846C4.70641 81.81 -10.3335 89.1508 -19.5417 101.906C-28.4077 114.175 -29.4376 130.069 -22.9153 143.407C-33.1812 145.465 -43.018 149.263 -51.896 154.548C-64.3076 162.226 -70.7437 174.573 -67.1763 186.77C-63.609 198.967 -51.0512 207.018 -36.5883 207.018H133.412C147.875 207.018 160.432 198.967 163.999 186.77C167.567 174.573 161.131 162.226 148.719 154.548C139.841 149.263 130.004 145.465 119.738 143.407C126.26 130.069 125.23 114.175 116.364 101.906C107.156 89.1508 92.1162 81.81 77.1238 84.0846C62.1314 86.3593 49.9667 96.8262 45.1248 110.83C40.2828 96.8262 28.1181 86.3593 13.1257 84.0846C-1.86668 81.81 -16.9066 89.1508 -26.1148 101.906C-34.9808 114.175 -36.0107 130.069 -29.4884 143.407C-39.7543 145.465 -49.5911 149.263 -58.4691 154.548C-70.8807 162.226 -77.3168 174.573 -73.7494 186.77C-70.1821 198.967 -57.6243 207.018 -43.1614 207.018H126.839C141.302 207.018 153.859 198.967 157.426 186.77C160.994 174.573 154.558 162.226 142.146 154.548Z" fill="#FFC131"/>
</svg>